<?xml version="1.0" standalone="no"?>
<!DOCTYPE svg PUBLIC "-//W3C//DTD SVG 20010904//EN"
 "http://www.w3.org/TR/2001/REC-SVG-20010904/DTD/svg10.dtd">
<svg version="1.0" xmlns="http://www.w3.org/2000/svg"
 width="992.000000pt" height="1056.000000pt" viewBox="0 0 992.000000 1056.000000"
 preserveAspectRatio="xMidYMid meet">
<metadata>
Created by potrace 1.16, written by Peter Selinger 2001-2019
</metadata>
<g transform="translate(0.000000,1056.000000) scale(0.100000,-0.100000)"
fill="#000000" stroke="none">
<path d="M0 5280 l0 -5280 4960 0 4960 0 0 5280 0 5280 -4960 0 -4960 0 0
-5280z m5017 3169 c48 -28 104 -60 123 -71 19 -11 77 -45 128 -75 82 -49 91
-57 75 -68 -45 -30 -407 -238 -423 -242 -9 -3 -60 21 -116 54 -54 33 -147 88
-206 123 -59 34 -105 66 -103 71 4 6 262 158 331 195 12 6 39 23 60 38 21 14
39 26 41 26 1 0 41 -23 90 -51z m541 -316 c45 -27 95 -55 110 -63 81 -44 212
-123 212 -129 0 -3 -50 -35 -111 -71 -62 -36 -159 -93 -217 -127 -58 -35 -106
-63 -107 -63 -4 0 -258 147 -333 193 -94 57 -95 54 9 110 37 20 108 61 159 92
51 30 94 55 97 55 2 0 21 11 41 25 20 14 41 25 47 25 6 0 48 -21 93 -47z
m-1068 -30 c160 -91 294 -171 297 -179 3 -9 -23 -25 -287 -176 l-135 -77 -40
23 c-22 13 -56 33 -75 44 -184 104 -295 171 -297 178 -2 5 27 26 65 47 37 20
85 48 107 61 22 13 87 51 145 84 l104 62 41 -24 c22 -13 56 -33 75 -43z m-637
-348 c114 -66 207 -123 207 -126 0 -12 -414 -249 -435 -249 -12 0 -383 216
-403 235 -14 12 -1 20 305 196 18 10 49 29 70 43 21 14 41 24 44 23 3 -1 98
-56 212 -122z m1083 96 c5 -5 25 -18 44 -29 79 -45 288 -167 324 -190 l39 -24
-29 -18 c-35 -21 -302 -178 -362 -212 l-44 -25 -211 119 c-117 66 -215 123
-220 127 -4 4 30 28 75 54 46 26 103 59 128 73 25 14 76 44 114 66 122 72 126
74 142 59z m1297 -125 c100 -58 191 -111 201 -119 18 -13 12 -18 -85 -72 -57
-32 -158 -89 -224 -127 l-119 -67 -41 23 c-137 78 -341 199 -348 206 -5 4 47
40 115 80 67 40 164 97 213 126 50 30 93 54 98 54 4 0 89 -47 190 -104z
m-1921 -234 c218 -128 278 -166 278 -173 0 -4 -57 -39 -126 -79 -69 -39 -166
-95 -216 -125 l-90 -53 -111 65 c-62 36 -156 92 -210 123 l-98 58 33 20 c37
22 99 58 138 79 14 7 79 46 145 87 66 41 121 75 122 75 2 1 62 -34 135 -77z
m1304 -42 c66 -39 126 -75 134 -80 8 -5 43 -25 77 -45 34 -19 64 -39 67 -43 4
-7 -414 -252 -430 -252 -13 0 -402 228 -409 241 -3 4 30 27 72 50 139 75 157
85 253 142 52 31 100 57 106 57 6 0 65 -32 130 -70z m889 -18 c-2 -26 -4 -139
-4 -252 l-1 -205 -122 -70 c-67 -39 -164 -93 -215 -122 l-93 -51 0 258 0 258
78 45 c42 24 109 61 147 83 39 21 99 55 135 75 35 21 67 36 71 33 4 -2 6 -26
4 -52z m-1847 -474 l-3 -263 -215 -122 c-118 -68 -218 -123 -223 -123 -4 0 -6
117 -5 261 l3 261 215 124 c118 68 218 123 223 124 4 0 6 -118 5 -262z m3729
-2621 c-1 -523 -2 -95 -2 953 0 1048 1 1476 2 952 2 -523 2 -1381 0 -1905z
m-2430 2782 c1 -24 -1 -139 -4 -255 l-6 -211 -139 -79 c-199 -113 -272 -154
-278 -154 -3 0 -5 116 -4 257 l0 258 205 117 c112 65 208 116 214 114 5 -1 10
-22 12 -47z m1153 -54 c27 -13 52 -29 55 -35 10 -15 -10 -36 -62 -65 l-46 -25
-41 24 c-85 51 -84 48 -24 88 29 20 57 37 61 37 4 1 30 -10 57 -24z m-281 -83
c36 -22 126 -74 199 -117 72 -42 132 -80 132 -84 0 -6 -161 -103 -327 -196
l-102 -57 -58 32 c-98 55 -93 43 -93 215 l0 152 78 46 c42 25 83 46 91 46 8 1
44 -16 80 -37z m-325 -294 c-1 -84 -3 -203 -3 -264 l-1 -111 -182 -103 c-101
-57 -198 -112 -215 -122 l-33 -20 0 260 c0 196 3 262 13 270 6 5 28 19 47 30
19 11 73 42 120 69 47 27 117 66 155 87 39 21 74 42 80 47 5 5 12 9 15 9 4 0
6 -69 4 -152z m716 -85 l-1 -68 -197 -110 -197 -110 -3 -108 c-2 -80 -6 -107
-15 -104 -9 3 -12 49 -12 172 l0 167 205 114 c112 63 208 114 212 114 4 0 8
-30 8 -67z m416 -1 c54 -32 130 -76 167 -96 38 -21 65 -42 60 -46 -9 -10 -318
-185 -518 -294 l-138 -76 -51 29 c-171 96 -286 164 -286 170 0 6 113 72 420
245 180 102 225 126 236 126 5 0 55 -26 110 -58z m-2778 -89 c52 -29 127 -75
167 -100 l74 -47 -32 -22 c-29 -19 -126 -76 -287 -169 -30 -17 -67 -39 -81
-48 -25 -17 -27 -16 -230 104 -112 66 -205 122 -207 124 -4 3 83 55 193 115
33 18 100 57 149 87 l89 53 36 -21 c20 -12 78 -46 129 -76z m1102 -253 l0
-260 -42 -21 c-24 -12 -101 -56 -173 -97 -71 -41 -149 -86 -172 -100 l-43 -24
0 265 0 265 43 25 c23 13 71 40 107 60 36 20 108 60 160 91 52 30 101 55 108
56 9 0 12 -58 12 -260z m718 18 c-2 -69 -6 -92 -16 -90 -15 3 -123 -51 -247
-123 -49 -28 -112 -64 -138 -79 l-48 -27 3 56 3 56 175 98 c161 90 175 100
178 128 2 22 12 35 40 51 20 12 41 22 45 22 4 0 6 -42 5 -92z m1132 -70 l0
-123 -165 -90 -164 -90 -1 -82 c0 -46 2 -83 5 -83 5 0 112 56 191 101 28 16
54 26 57 22 9 -8 9 -190 1 -220 -4 -16 -42 -42 -128 -89 -66 -36 -124 -71
-128 -78 -8 -11 -8 -145 -1 -159 3 -4 44 13 91 39 48 26 119 64 157 85 39 21
76 39 83 39 9 0 12 -30 12 -119 l0 -119 -62 -35 c-35 -19 -156 -87 -270 -151
-114 -64 -210 -116 -213 -116 -3 0 -4 246 -3 547 l3 547 100 57 c55 31 172 97
260 147 88 50 163 91 168 92 4 0 7 -55 7 -122z m-2657 -459 c-10 -9 -343 -199
-349 -199 -2 0 -4 8 -4 18 0 10 -13 26 -30 35 l-30 18 0 122 c-1 67 -3 155 -6
195 -5 61 -3 76 12 93 9 10 20 19 24 19 4 0 63 32 131 72 68 39 138 79 154 88
17 9 46 27 65 38 l35 22 3 -257 c1 -141 -1 -260 -5 -264z m-1833 294 c110 -64
200 -120 200 -124 0 -8 -299 -185 -371 -220 l-47 -22 -148 85 c-241 138 -264
152 -264 158 0 3 30 22 68 43 37 20 130 73 207 117 77 43 143 79 147 80 4 0
98 -53 208 -117z m3480 18 c74 -44 144 -87 155 -96 20 -15 20 -15 -4 -33 -25
-18 -292 -173 -419 -243 l-72 -41 -128 73 c-70 40 -147 83 -171 97 -54 30 -55
29 109 120 69 39 177 99 240 135 63 36 124 66 135 66 11 1 81 -35 155 -78z
m-709 -180 c-18 -12 -21 -24 -21 -97 0 -45 -4 -85 -8 -88 -5 -3 -37 13 -73 34
-35 22 -70 40 -77 40 -7 0 -69 -31 -138 -70 -68 -38 -127 -70 -129 -70 -3 0
-5 24 -5 53 l0 53 78 42 c89 49 133 74 257 147 144 84 130 82 133 22 3 -43 0
-54 -17 -66z m-3337 -70 c56 -33 148 -86 206 -119 57 -33 106 -64 107 -69 2
-6 -22 -24 -54 -41 -32 -18 -123 -70 -203 -116 -113 -66 -144 -88 -142 -103 3
-16 2 -17 -10 -2 -7 9 -74 52 -148 95 -220 126 -273 159 -276 169 -2 6 65 48
148 95 82 47 176 100 207 117 31 18 58 33 60 33 3 0 50 -27 105 -59z m1143
-102 c46 -24 83 -47 83 -51 0 -3 -24 -20 -54 -37 -48 -27 -55 -35 -61 -70 -9
-53 -18 -63 -103 -111 l-73 -41 -100 57 -101 57 -33 -17 c-37 -20 -28 -24
-163 57 l-84 49 34 22 c18 13 67 41 108 64 41 22 123 70 183 105 l108 65 87
-52 c48 -29 124 -72 169 -97z m3165 95 l78 -46 0 -368 0 -368 -39 -58 c-21
-33 -59 -91 -85 -131 -27 -44 -60 -82 -83 -96 -59 -37 -389 -207 -402 -207 -8
0 -11 147 -11 530 l0 531 43 25 c123 75 403 234 411 234 5 0 45 -21 88 -46z
m-2627 -57 c49 -30 143 -84 209 -122 l118 -68 -23 -18 c-13 -10 -55 -35 -94
-55 -38 -20 -123 -66 -188 -101 l-118 -65 -40 -76 c-42 -81 -42 -77 -2 28 28
75 33 67 -77 127 -36 20 -112 62 -170 94 -58 33 -109 61 -115 63 -22 8 17 35
215 144 36 20 90 50 120 68 30 18 59 33 65 34 5 0 50 -24 100 -53z m1540 -56
c163 -92 265 -154 265 -160 0 -5 -61 -41 -137 -80 -75 -40 -144 -78 -153 -84
-14 -8 -40 3 -136 59 -65 38 -130 75 -144 82 -14 7 -36 21 -49 31 l-23 18 148
81 c82 45 156 81 164 81 8 1 38 -12 65 -28z m-760 -206 c94 -54 176 -102 183
-108 10 -8 -1 -19 -45 -47 l-58 -37 -65 34 -65 35 -164 -90 c-207 -114 -201
-116 -201 53 0 66 4 125 8 131 9 13 224 134 232 130 3 -2 82 -48 175 -101z
m-2708 -133 l81 -46 67 -171 c37 -93 90 -228 117 -299 l50 -128 23 23 c13 13
69 92 125 174 57 83 106 154 110 158 4 4 52 -18 106 -49 54 -31 118 -68 142
-81 l42 -24 0 -709 c0 -391 -4 -710 -8 -710 -5 0 -67 33 -138 74 l-129 74 -5
441 -5 442 -108 -153 c-136 -194 -134 -191 -146 -184 -5 4 -23 41 -40 84 -75
194 -201 494 -213 506 -4 6 -8 -175 -8 -402 0 -281 -3 -412 -11 -412 -5 0 -64
32 -130 71 l-119 70 0 681 0 680 58 -32 c31 -18 94 -53 139 -78z m1026 87 c35
-18 297 -169 375 -216 12 -7 22 -17 22 -22 0 -7 -56 -40 -328 -191 l-114 -63
-41 23 c-112 61 -397 233 -397 240 0 15 38 39 160 103 69 36 157 84 195 106
39 22 74 40 78 40 4 1 27 -9 50 -20z m2779 -35 c34 -20 69 -40 76 -46 9 -8 11
-92 9 -372 l-3 -361 -89 -138 c-71 -111 -97 -143 -127 -158 -21 -11 -81 -44
-133 -74 -52 -30 -103 -55 -112 -55 -10 0 -51 18 -90 40 l-73 41 0 354 0 354
58 90 c31 49 73 116 93 148 30 49 45 63 100 90 35 18 98 52 139 77 41 25 78
45 82 45 3 1 35 -15 70 -35z m-1640 -81 c1 -43 1 -159 -1 -258 -3 -170 -4
-182 -27 -217 l-24 -38 0 -397 c0 -219 -4 -403 -8 -409 -7 -10 -207 -124 -217
-124 -3 0 -5 183 -5 407 0 223 -3 404 -6 401 -3 -4 -34 -69 -68 -145 -99 -219
-199 -423 -207 -423 -4 0 -58 81 -120 180 -63 99 -117 180 -121 180 -4 0 -9
-192 -10 -427 l-3 -426 -130 -73 c-71 -40 -136 -73 -142 -73 -10 -1 -13 148
-13 712 l0 712 145 78 c80 42 151 77 158 77 6 0 47 -60 90 -133 150 -253 159
-266 170 -230 3 10 62 139 131 287 l125 268 133 74 c73 40 136 74 141 74 4 0
8 -35 9 -77z m648 -93 c166 -95 180 -103 180 -110 0 -7 -39 -29 -185 -105
l-120 -63 -154 88 c-84 49 -158 91 -165 93 -8 3 -8 8 2 18 19 21 265 157 285
158 10 1 81 -35 157 -79z m267 -245 l63 -36 0 -102 0 -103 -92 -49 c-50 -28
-94 -50 -97 -50 -3 0 -7 13 -9 28 -2 18 -12 32 -28 39 -31 14 -79 -10 -135
-67 l-39 -40 0 -241 0 -241 24 -13 c21 -11 31 -9 78 14 68 33 98 72 98 125 l0
39 94 51 c52 28 97 51 100 51 3 0 6 -42 6 -92 0 -88 -2 -95 -33 -143 -19 -27
-53 -81 -77 -119 -48 -74 -59 -83 -226 -171 l-111 -59 -67 28 c-108 46 -100 9
-92 414 l7 354 89 141 89 141 128 67 c70 37 137 67 147 68 11 1 48 -15 83 -34z
m1396 -621 c-10 -7 -76 -45 -148 -85 -71 -40 -155 -87 -186 -106 -31 -18 -59
-33 -63 -33 -3 0 -6 71 -6 158 l0 158 68 32 c87 42 234 121 297 160 l50 31 3
-151 c2 -134 1 -152 -15 -164z m-1322 155 c20 -15 16 -18 -121 -94 -128 -70
-144 -77 -173 -68 l-32 9 -1 82 c-1 83 3 94 26 67 18 -22 27 -19 110 29 l75
43 48 -26 c26 -14 56 -33 68 -42z m757 -100 c39 -21 39 -21 46 -97 10 -125 7
-238 -6 -250 -7 -5 -96 -56 -198 -112 -102 -56 -189 -106 -194 -111 -23 -21
-26 0 -24 152 l3 161 114 58 c113 58 115 59 144 117 38 75 55 103 66 103 5 0
27 -10 49 -21z m589 -351 c-4 -79 -7 -195 -7 -258 l0 -115 -87 -45 c-47 -25
-140 -75 -205 -112 -65 -38 -121 -68 -123 -68 -3 0 -5 117 -5 260 l0 260 108
55 c126 65 278 148 288 158 4 4 14 7 22 7 13 0 14 -20 9 -142z m-1181 57 c41
-19 80 -35 85 -35 5 0 9 -69 9 -162 l0 -163 -203 -112 c-112 -62 -205 -113
-207 -113 -3 0 -4 76 -2 169 3 154 5 170 21 176 10 3 48 58 84 123 59 104 99
151 129 152 5 0 42 -16 84 -35z m644 -460 l0 -254 -117 -69 c-65 -38 -145 -84
-178 -102 -33 -18 -74 -41 -91 -51 -17 -10 -33 -17 -35 -15 -2 2 -3 121 -1
263 l3 258 57 31 c57 30 232 128 307 170 22 13 43 23 48 24 4 0 7 -115 7 -255z
m-1070 -17 c0 -90 -4 -168 -8 -174 -6 -10 -44 -31 -314 -180 -54 -30 -102 -54
-108 -54 -7 0 -9 83 -8 256 4 314 -4 300 135 247 l92 -35 93 50 c51 28 99 51
106 51 9 1 12 -38 12 -161z m530 -287 l0 -260 -132 -72 c-73 -40 -158 -86
-188 -102 -30 -17 -65 -37 -78 -45 -12 -8 -24 -13 -25 -11 -2 2 -1 122 1 265
l4 262 26 12 c25 10 278 150 347 191 17 9 33 18 38 18 4 1 7 -116 7 -258z
m2438 -2 c-3 -10 -80 -59 -118 -76 -8 -4 -46 -28 -85 -53 -38 -26 -133 -84
-210 -130 -77 -45 -157 -93 -178 -107 -35 -22 -51 -31 -144 -84 -21 -12 -49
-29 -63 -39 -40 -28 -210 -131 -268 -161 -30 -16 -66 -38 -82 -49 -15 -11 -33
-20 -39 -20 -6 0 -11 -3 -11 -8 0 -4 -15 -14 -32 -21 -18 -8 -62 -33 -98 -56
-92 -59 -239 -149 -280 -171 -19 -10 -37 -21 -40 -24 -3 -3 -16 -11 -29 -18
-13 -8 -38 -22 -56 -32 -18 -10 -43 -24 -56 -32 -13 -7 -26 -15 -29 -18 -3 -3
-16 -11 -29 -18 -13 -8 -40 -23 -60 -35 -20 -11 -45 -25 -56 -31 -11 -6 -40
-25 -65 -42 -25 -17 -71 -45 -104 -63 -32 -17 -78 -45 -101 -61 -24 -17 -46
-30 -50 -30 -4 0 -26 -13 -50 -30 -24 -16 -48 -30 -54 -30 -6 0 -11 -3 -11 -8
0 -4 -14 -13 -31 -21 -18 -8 -59 -31 -93 -52 -151 -94 -209 -129 -217 -129 -5
0 -9 -4 -9 -8 0 -5 -21 -20 -47 -33 -27 -13 -49 -27 -51 -31 -2 -5 -8 -8 -14
-8 -5 0 -28 -13 -51 -28 -23 -15 -55 -34 -72 -42 -16 -8 -74 -43 -127 -77 -54
-35 -100 -63 -103 -63 -2 0 -39 -23 -81 -50 -42 -28 -86 -50 -97 -50 -29 0
-24 4 173 120 96 57 267 159 380 228 113 69 266 161 340 205 74 44 146 87 160
96 14 10 183 111 375 225 193 115 377 226 410 246 50 31 465 279 553 331 112
66 753 453 857 517 132 82 150 91 143 71z m-2972 -295 l-1 -256 -165 -92 c-91
-51 -186 -105 -212 -120 l-48 -28 0 264 0 263 102 55 c57 30 143 77 193 103
49 27 94 53 100 58 30 29 33 9 31 -247z"/>
<path d="M6800 5500 l-65 -37 -3 -277 -2 -276 26 -6 c36 -9 112 34 146 83 l27
38 1 246 c0 177 -3 248 -12 257 -19 19 -49 13 -118 -28z"/>
<path d="M6045 5066 l-65 -64 0 -239 c0 -249 2 -263 43 -263 28 0 120 64 140
98 15 26 17 59 17 269 0 173 -3 242 -12 251 -26 26 -58 12 -123 -52z"/>
</g>
</svg>
