<svg version="1.0" xmlns="http://www.w3.org/2000/svg" width="271px" height="327px" viewBox="0 0 271 327" preserveAspectRatio="xMidYMid meet">
 <g fill="#fefdfe">
  
 </g>
 <g fill="#5d90df">
  <path d="M114.33 148.93 l-19.86 -11.91 -0.09 -1.14 -0.09 -1.17 4.32 -2.63 c2.37 -1.46 11.39 -6.86 20 -12.03 12.88 -7.71 15.86 -9.37 16.73 -9.37 0.88 0 4.53 2.07 21.06 12.03 l20 12 -0.09 1.02 c-0.09 1.20 1.75 -0.06 -16.59 11.01 -6.19 3.74 -13.99 8.44 -17.35 10.48 -4.91 2.95 -6.34 3.68 -7.15 3.65 -0.85 0 -4.99 -2.37 -20.91 -11.94z" data-index="1" style="opacity: 1;"></path>
  <path d="M176.35 131.97 c-3.83 -2.28 -18.66 -11.13 -29.03 -17.38 l-7.88 -4.73 0 -1.02 0 -1.02 19.97 -12 c18.25 -10.98 20.06 -12 21.26 -12 0.70 0 1.69 0.20 2.22 0.47 1.49 0.79 25.79 15.30 34.75 20.76 3.85 2.37 4 2.51 4 3.42 0 0.96 -0.12 1.05 -5.75 4.44 -5.96 3.53 -18.22 10.89 -28.74 17.23 -4.12 2.48 -6.28 3.62 -6.86 3.62 -0.55 0 -2.04 -0.67 -3.94 -1.78z" data-index="2"></path>
  <path d="M218 103.44 c-3.21 -1.90 -9.37 -5.55 -13.73 -8.15 -4.32 -2.60 -10.19 -6.07 -13 -7.74 l-5.11 -3.04 0 -1.14 c0 -1.34 -2.66 0.38 20.97 -13.73 15.10 -8.99 16.09 -9.55 17.23 -9.43 0.99 0.06 4.67 2.16 19.97 11.33 18.57 11.13 18.75 11.24 18.78 12.18 0 1.17 1.66 0.06 -19.97 13.05 -15.01 8.99 -17 10.10 -18.08 10.10 -1.05 0 -2.10 -0.53 -7.07 -3.45z" data-index="3"></path>
  <path d="M177.55 40.45 c0 -5.64 0.06 -6.86 0.41 -6.86 0.64 0 0.76 0.99 0.76 6.86 0 5.87 -0.12 6.86 -0.76 6.86 -0.35 0 -0.41 -1.23 -0.41 -6.86z" data-index="4"></path>
 </g>
 <g fill="#9a60ce">
  <path d="M26.08 97.36 l-18.78 -11.27 0 -1.05 c0 -1.05 0.09 -1.14 2.57 -2.57 1.40 -0.82 10.22 -6.10 19.62 -11.74 13 -7.83 17.29 -10.28 18.02 -10.28 0.70 0 5.43 2.69 19.77 11.27 l18.86 11.30 0 0.96 c0 0.85 -0.18 1.11 -1.23 1.78 -2.86 1.78 -12.56 7.65 -24.88 15.04 -10.75 6.42 -13.29 7.83 -14.16 7.83 -0.88 0 -4.32 -1.99 -19.80 -11.27z" data-index="5"></path>
  <path d="M81.48 78.03 c-4.26 -2.54 -11.01 -6.57 -15.04 -8.97 -4 -2.39 -9.11 -5.40 -11.33 -6.69 l-4.03 -2.37 0.09 -1.14 0.09 -1.14 11.24 -6.75 c6.19 -3.74 15.13 -9.11 19.83 -11.94 6.40 -3.83 8.85 -5.17 9.55 -5.17 0.88 0 9.61 5.02 33.41 19.24 5.61 3.36 5.69 3.45 5.78 4.47 0.12 1.26 2.19 -0.12 -22.54 14.75 -14.19 8.50 -17.40 10.31 -18.25 10.31 -0.82 -0.03 -2.77 -1.05 -8.79 -4.61z" data-index="6"></path>
  <path d="M128.35 53.03 c-6.04 -3.68 -21.99 -13.14 -28.18 -16.76 -4.53 -2.63 -4.53 -2.63 -4.61 -3.77 -0.09 -1.08 -0.03 -1.17 1.46 -2.04 4.91 -2.89 32.06 -19.13 34.43 -20.59 2.04 -1.23 3.10 -1.69 3.85 -1.69 0.88 0 4.38 1.99 19.83 11.24 l18.78 11.24 0 1.23 c0 1.14 -0.09 1.28 -1.31 2.01 -0.73 0.41 -9.32 5.58 -19.13 11.48 -15.80 9.46 -17.96 10.69 -18.98 10.66 -0.93 0 -2.13 -0.58 -6.13 -3.01z" data-index="7"></path>
 </g>
 <g fill="#2f63c2">
  <path d="M136 323.65 c-0.32 -0.29 -0.23 -50.75 0.06 -51.54 0.18 -0.47 2.31 -1.96 6.78 -4.67 3.59 -2.19 12.21 -7.48 19.10 -11.74 10.57 -6.54 12.73 -7.77 13.67 -7.77 l1.08 0 0 26.08 0 26.11 -2.83 1.75 c-29.09 18.02 -35.71 21.99 -36.65 21.99 -0.55 0 -1.11 -0.09 -1.20 -0.20z" data-index="8"></path>
  <path d="M181.11 276.78 l0.09 -19.30 12.56 -7.74 c6.92 -4.23 15.30 -9.40 18.69 -11.48 4.99 -3.07 6.34 -3.77 7.21 -3.77 l1.11 0 -0.06 19.19 -0.09 19.19 -3.94 2.45 c-2.16 1.34 -8.53 5.29 -14.16 8.76 -5.61 3.45 -12.29 7.59 -14.83 9.17 -3.50 2.16 -4.88 2.86 -5.64 2.86 l-0.99 0 0.06 -19.33z" data-index="9"></path>
  <path d="M135.79 244.08 c0 -13.37 0.09 -24.59 0.18 -24.91 0.09 -0.38 1.96 -1.69 5.17 -3.62 2.77 -1.66 9.55 -5.81 15.10 -9.23 17.90 -10.98 18.84 -11.54 19.97 -11.54 l1.05 0 0 24.65 0 24.65 -0.93 0.58 c-0.53 0.29 -2.60 1.58 -4.61 2.83 -2.01 1.26 -6.22 3.85 -9.34 5.78 -9.43 5.81 -12.73 7.83 -18.72 11.54 -4.58 2.83 -5.96 3.56 -6.80 3.56 l-1.05 0 0 -24.30z" data-index="10"></path>
  <path d="M226.32 245.48 c0 -12.59 -0.09 -23.30 -0.18 -23.80 -0.12 -0.53 -0.53 -1.17 -1.02 -1.49 l-0.82 -0.58 -4.91 3.01 c-12.09 7.45 -13.75 8.38 -14.81 8.38 l-1.05 0 0 -13.84 0 -13.81 2.42 -1.46 c5.61 -3.39 26.37 -16.03 45.47 -27.68 10.72 -6.57 11.27 -6.86 12.44 -6.86 l0.99 0 0 39.37 0 39.37 -3.12 1.93 c-1.75 1.05 -5.31 3.27 -7.97 4.91 -4.99 3.10 -8.32 5.14 -18.98 11.65 -5.11 3.10 -6.48 3.83 -7.36 3.83 l-1.11 0 0 -22.89z" data-index="11"></path>
  <path d="M135.79 188.97 c0 -29.35 -0.15 -26.92 1.84 -27.98 0.93 -0.47 17.73 -10.48 30.34 -18.11 5.67 -3.42 7.13 -4.18 8.03 -4.18 l1.11 0 0.06 26.40 0.06 26.43 -13.64 8.29 c-7.51 4.58 -16.35 9.96 -19.68 12 -4.76 2.89 -6.28 3.68 -7.07 3.68 l-1.05 0 0 -26.55z" data-index="12"></path>
  <path d="M180.47 157.84 l0 -22.63 1.11 -0.67 c0.58 -0.38 4.56 -2.77 8.82 -5.31 4.26 -2.54 8.85 -5.29 10.22 -6.13 1.37 -0.85 6.25 -3.77 10.86 -6.54 7.13 -4.23 8.59 -4.99 9.58 -4.99 l1.17 0 0 22.31 0 22.31 -3.27 1.99 c-5.90 3.56 -28.62 17.38 -32.71 19.86 -2.72 1.69 -4.26 2.45 -4.88 2.45 l-0.91 0 0 -22.63z" data-index="13"></path>
  <path d="M224.86 130.13 c0 -11.39 0.12 -20.59 0.26 -20.97 0.18 -0.47 2.51 -2.01 7.39 -4.94 30.08 -18.02 30.25 -18.11 31.25 -18.02 l0.96 0.09 0 20.68 0 20.70 -6.57 4 c-28.24 17.17 -30.90 18.72 -32.12 18.72 l-1.17 0 0 -20.27z" data-index="14"></path>
 </g>
 <g fill="#7031b2">
  <path d="M128.17 321.11 c-7.15 -4.32 -18.84 -11.48 -22.02 -13.46 -1.61 -0.99 -4.61 -2.83 -6.72 -4.09 -2.07 -1.26 -4.03 -2.48 -4.29 -2.72 -0.50 -0.41 -0.53 -2.01 -0.53 -25.96 l0 -25.49 1.23 0 c1.05 0 2.13 0.55 7.68 3.85 8.24 4.91 20.38 12.27 25.93 15.68 2.39 1.46 4.44 2.66 4.58 2.66 0.12 0 0.29 0.20 0.41 0.44 0.09 0.23 0.15 12 0.18 26.14 l0 25.70 -0.99 0 c-0.73 0 -2.13 -0.70 -5.46 -2.75z" data-index="15" style="opacity: 1;"></path>
  <path d="M40.59 267.67 c-4.35 -2.69 -10.28 -6.34 -12.70 -7.80 -1.28 -0.79 -6.66 -4.09 -11.97 -7.36 l-9.64 -5.90 -0.20 -1.75 c-0.15 -0.96 -0.20 -11.21 -0.18 -22.78 l0.09 -21.03 1.02 -0.09 c0.79 -0.06 1.49 0.20 3.07 1.20 1.14 0.70 4.79 2.92 8.18 4.94 11.89 7.10 25.70 15.48 26.22 15.94 0.47 0.41 0.50 1.90 0.50 23.33 l0 22.87 -0.93 -0.03 c-0.64 0 -1.84 -0.55 -3.45 -1.55z" data-index="16" style="opacity: 1;"></path>
  <path d="M125.69 264.34 c-3.56 -2.19 -9.84 -6.04 -13.93 -8.53 -4.12 -2.48 -10.07 -6.10 -13.26 -8.03 l-5.78 -3.50 -0.09 -18.08 -0.06 -18.08 -1.40 2.31 c-3.27 5.40 -5.31 8.76 -11.89 19.39 -3.83 6.19 -7.48 12.12 -8.15 13.23 -1.11 1.84 -1.26 1.96 -2.25 1.96 l-1.05 0 -1.84 -4.73 c-0.99 -2.63 -2.45 -6.54 -3.21 -8.70 -1.81 -5.02 -8.53 -23.30 -14.19 -38.49 l-3.18 -8.56 -0.09 17.67 -0.06 17.70 -0.91 0 c-1.28 0 0.06 0.76 -21.43 -12.27 -6.25 -3.83 -12.64 -7.65 -14.16 -8.50 l-2.77 -1.58 -0.09 -27.39 -0.06 -27.36 0.99 0 c0.79 0 3.91 1.75 14.66 8.21 14.66 8.76 20.53 12.29 21.64 13.02 0.67 0.44 0.67 0.44 0.67 -0.73 0 -1.17 0 -1.17 -2.69 -2.77 -1.49 -0.88 -8.88 -5.29 -16.44 -9.84 -7.56 -4.53 -14.86 -8.91 -16.27 -9.72 l-2.54 -1.52 -0.03 -25.90 0 -25.93 0.88 0 c0.50 0 1.31 0.20 1.84 0.47 0.99 0.53 32.56 19.48 35.45 21.29 l1.84 1.17 1.02 3.36 c0.58 1.84 2.28 7.18 3.80 11.83 1.49 4.67 3.94 12.29 5.40 16.94 1.49 4.67 3.91 12.29 5.40 16.94 1.52 4.67 3.83 11.86 5.14 16 1.34 4.12 2.48 7.51 2.57 7.51 0.09 0 0.67 -0.96 1.26 -2.13 1.87 -3.65 15.13 -30.43 18.31 -36.91 l3.04 -6.22 1.08 0 c0.88 0 4.03 1.78 18.72 10.60 20.85 12.56 21.58 13 22.25 13.58 0.47 0.41 0.50 2.07 0.50 27.13 l0 26.66 -0.85 0 c-0.61 0 -5.90 -3.04 -18.11 -10.37 -9.49 -5.69 -17.49 -10.37 -17.78 -10.37 -0.79 0 -1.72 0.79 -1.37 1.11 0.18 0.15 3.39 2.10 7.15 4.35 3.77 2.25 11.27 6.75 16.65 10.02 5.37 3.24 10.80 6.51 12.06 7.24 l2.25 1.34 0 24.62 0 24.62 -1.08 -0.03 c-0.91 0 -2.37 -0.79 -7.56 -4z" data-index="17" style="opacity: 1;"></path>
 </g>
 <g fill="#5a239b">
  <path d="M98.91 129.46 c-0.15 -0.23 -0.67 -2.07 -4.88 -17.03 -1.17 -4.09 -2.45 -8.56 -2.86 -9.93 -0.70 -2.37 -0.76 -2.86 -0.85 -10.37 l-0.12 -7.88 1.84 -1.02 c0.99 -0.55 2.86 -1.66 4.15 -2.45 1.31 -0.79 4.79 -2.86 7.77 -4.64 2.98 -1.75 10.22 -6.07 16.12 -9.58 7.77 -4.64 10.92 -6.40 11.59 -6.40 l0.91 0 0 25.20 0 25.23 -1.55 1.05 c-0.88 0.61 -1.64 1.08 -1.75 1.08 -0.09 0 -6.51 3.83 -14.22 8.47 -11.07 6.66 -14.25 8.47 -15.04 8.47 -0.55 0 -1.05 -0.09 -1.11 -0.20z" data-index="18"></path>
  <path d="M135.27 83.61 l0.09 -26.22 11.68 -7.01 c26.14 -15.65 27.07 -16.21 28.09 -16.21 l0.96 0 -0.06 25.29 -0.09 25.32 -3.36 2.01 c-1.84 1.14 -4.15 2.54 -5.14 3.12 -10.22 6.07 -29 17.40 -29.35 17.76 -0.26 0.23 -0.55 0.79 -0.67 1.28 -0.15 0.73 -0.29 0.85 -1.20 0.85 l-1.02 0 0.06 -26.19z" data-index="19"></path>
 </g>
 <g fill="#4f1a90">
  <path d="M43.22 268.63 c0 -0.79 0.06 -0.88 0.44 -0.55 0.38 0.32 0.44 -2.01 0.44 -20.70 0 -20.85 0 -21.06 0.58 -21.06 0.58 0 0.58 0.20 0.58 21.61 l0 21.61 -1.02 0 c-0.96 0 -1.02 -0.06 -1.02 -0.91z" data-index="20"></path>
  <path d="M66.93 173.81 c-0.88 -2.69 -2.28 -7.10 -3.12 -9.84 -1.72 -5.43 -5.99 -18.84 -10.80 -33.88 -1.69 -5.29 -3.71 -11.54 -4.44 -13.87 -1.78 -5.55 -1.84 -6.16 -0.76 -6.92 0.44 -0.32 5.81 -3.59 11.91 -7.24 6.10 -3.68 11.89 -7.15 12.85 -7.74 8.41 -5.17 11.24 -6.72 12.38 -6.72 l1.14 0 0.91 2.86 c0.47 1.55 1.34 4.67 1.93 6.92 0.58 2.25 2.13 7.83 3.42 12.41 2.16 7.71 3.30 11.86 4.91 17.61 0.99 3.65 0.93 3.80 -2.48 5.90 -2.54 1.58 -2.92 1.93 -3.12 2.80 -0.12 0.55 -1.02 2.51 -1.99 4.35 -0.99 1.84 -3.50 6.92 -5.61 11.24 -2.10 4.35 -5.96 12.18 -8.59 17.46 l-4.79 9.55 -1.11 0 -1.08 0 -1.55 -4.91z" data-index="21" style="opacity: 1;"></path>
 </g>
 <g fill="#1c3e9e">
  <path d="M178.43 237.86 l0 -19.13 1.08 0 c1.05 0 3.77 1.52 14.54 8.15 0.96 0.58 3.56 2.16 5.78 3.50 l4 2.42 4.41 -2.66 c5.40 -3.24 5.49 -3.24 9.05 -1.11 2.48 1.46 2.60 1.58 2.60 2.54 0 1.02 -0.06 1.05 -5.61 4.50 -3.10 1.93 -6.48 4.03 -7.53 4.70 -1.05 0.67 -4.64 2.92 -8.03 4.96 -6.89 4.21 -10.89 6.66 -15.21 9.40 -2.22 1.40 -3.18 1.84 -4 1.84 l-1.08 0 0 -19.13z" data-index="22"></path>
  <path d="M266.04 243.40 c0 -3.15 0.03 -3.36 0.58 -3.36 0.55 0 0.58 0.20 0.58 3.36 0 3.15 -0.03 3.36 -0.58 3.36 -0.55 0 -0.58 -0.20 -0.58 -3.36z" data-index="23"></path>
  <path d="M193.47 197.61 c-4.32 -2.63 -9.46 -5.75 -11.39 -6.95 l-3.50 -2.19 -0.09 -2.83 c-0.09 -2.72 -0.06 -2.83 0.53 -2.83 0.85 0 0.96 -0.06 14.40 -8.15 19.92 -11.97 28.65 -17.29 29.20 -17.78 0.26 -0.23 0.50 -0.85 0.50 -1.37 0 -1.96 0.32 -2.77 1.08 -2.77 0.88 0 1.11 -0.12 5.69 -2.95 2.60 -1.61 4 -2.31 4.64 -2.31 0.58 0 1.72 0.50 3.15 1.37 1.23 0.76 4.38 2.69 7.07 4.32 2.66 1.61 7.74 4.70 11.30 6.86 l6.45 3.94 0.03 1.05 c0 0.64 -0.20 1.23 -0.50 1.49 -0.58 0.47 -9.49 6.02 -19.22 11.94 -3.36 2.04 -8.70 5.29 -11.83 7.21 -22.25 13.70 -27.39 16.70 -28.53 16.70 -0.91 0 -2.48 -0.85 -8.99 -4.76z" data-index="24"></path>
 </g>
 <g fill="#3e117d">
  <path d="M133.57 272.90 c-0.12 -0.23 -0.29 -0.44 -0.41 -0.44 -0.15 0 -2.19 -1.20 -4.58 -2.66 -5.55 -3.45 -17.70 -10.78 -25.99 -15.74 -7.51 -4.47 -7.59 -4.58 -4.82 -5.93 0.91 -0.44 1.78 -0.79 1.93 -0.79 0.47 0 8.85 5.02 27.10 16.24 3.50 2.16 6.42 3.91 6.51 3.91 0.09 0 0.15 -0.26 0.15 -0.58 0 -0.38 0.15 -0.53 0.44 -0.41 0.35 0.15 0.44 0.82 0.44 3.50 0 2.10 -0.12 3.33 -0.29 3.33 -0.18 0 -0.38 -0.20 -0.47 -0.44z" data-index="25" style="opacity: 1;"></path>
  <path d="M43.75 269.66 c-0.15 -0.12 -0.23 -0.53 -0.23 -0.93 0 -0.61 0.06 -0.67 0.47 -0.35 0.41 0.35 0.44 -1.72 0.35 -21.70 -0.09 -21.64 -0.09 -22.11 -0.67 -22.66 -0.55 -0.53 -12.62 -7.88 -26.28 -16.03 -3.39 -2.01 -6.95 -4.15 -7.94 -4.79 l-1.78 -1.14 -0.20 -1.81 c-0.15 -1.23 -0.12 -1.81 0.12 -1.90 0.18 -0.06 0.32 -0.29 0.32 -0.53 0 -0.23 0.06 -0.41 0.12 -0.41 0.32 0 6.45 3.62 16.38 9.67 14.66 8.91 17.93 10.89 19.07 11.48 l0.93 0.50 0 -5.87 c0 -5.64 0.03 -5.84 0.58 -5.84 0.55 0 0.58 0.20 0.58 5.64 0.03 4.47 0.09 5.52 0.38 5.17 0.20 -0.26 0.88 -0.79 1.52 -1.17 0.64 -0.38 2.25 -1.40 3.56 -2.25 1.99 -1.31 2.60 -1.58 3.48 -1.49 1.20 0.09 0.96 -0.38 4.06 8.26 0.85 2.42 1.93 5.37 2.42 6.57 0.47 1.20 1.46 3.91 2.19 5.99 2.48 7.01 4.73 12.38 5.37 12.79 0.15 0.09 0.79 -0.47 1.37 -1.28 0.76 -0.96 2.25 -2.19 4.58 -3.77 1.93 -1.28 3.59 -2.34 3.71 -2.34 0.12 0 1.69 -0.99 3.53 -2.19 2.48 -1.64 3.56 -2.19 4.29 -2.19 l0.99 0 -0.06 4.73 -0.09 4.70 -3.80 2.37 c-10.37 6.40 -14.75 9.11 -16.35 10.10 -0.96 0.61 -3.45 2.13 -5.55 3.45 -2.07 1.28 -6.28 3.88 -9.32 5.75 -4.09 2.54 -5.84 3.48 -6.72 3.56 -0.67 0.09 -1.28 0.03 -1.40 -0.09z" data-index="26" style="opacity: 1;"></path>
  <path d="M133.46 220.39 c0 -0.20 -1.02 -0.96 -2.25 -1.72 -1.26 -0.73 -6.69 -4 -12.06 -7.24 -5.37 -3.27 -13.32 -8.03 -17.61 -10.60 -4.29 -2.57 -7.77 -4.82 -7.71 -4.96 0.09 -0.29 3.62 -2.25 4.03 -2.25 0.09 0 8.15 4.79 17.87 10.63 16.47 9.90 17.73 10.60 17.73 9.90 0 -0.61 0.06 -0.70 0.44 -0.38 0.35 0.29 0.44 1.08 0.44 3.68 0 2.77 -0.09 3.33 -0.44 3.33 -0.23 0 -0.44 -0.18 -0.44 -0.38z" data-index="27" style="opacity: 1;"></path>
  <path d="M87.52 214.11 c1.87 -3.24 2.13 -3.36 2.37 -0.99 0.12 1.40 0.09 1.46 -0.82 1.93 -0.53 0.26 -1.28 0.47 -1.66 0.47 l-0.67 0 0.79 -1.40z" data-index="28"></path>
  <path d="M3.50 190.84 c0 -1.99 0.06 -2.19 0.58 -2.19 0.53 0 0.58 0.20 0.58 2.19 0 1.99 -0.06 2.19 -0.58 2.19 -0.53 0 -0.58 -0.20 -0.58 -2.19z" data-index="29"></path>
  <path d="M39.72 163.36 c-2.48 -1.52 -10.83 -6.54 -18.54 -11.16 -11.10 -6.66 -14.05 -8.53 -14.10 -9.05 -0.09 -0.50 0.06 -0.64 0.53 -0.64 0.38 0 0.70 -0.23 0.79 -0.58 0.09 -0.32 0.26 -0.58 0.41 -0.58 0.15 0 0.26 -0.20 0.26 -0.44 0 -0.23 0.20 -0.44 0.44 -0.44 0.47 0 5.99 3.24 20.44 11.97 5.14 3.10 10.57 6.34 12.06 7.21 l2.69 1.61 0 2.45 c0 1.34 -0.09 2.45 -0.20 2.45 -0.15 -0.03 -2.28 -1.26 -4.76 -2.80z" data-index="30"></path>
  <path d="M131.21 110.06 c0.47 -0.26 0.50 -1.75 0.50 -24.65 0 -21.55 -0.06 -24.35 -0.44 -24.21 -0.29 0.12 -0.44 0 -0.44 -0.44 0 -0.50 0.18 -0.61 1.02 -0.61 0.82 0 1.02 0.12 1.02 0.58 0 0.47 0.20 0.58 1.02 0.58 l1.02 0 0 -1.90 0 -1.90 1.08 0 c0.99 0 1.02 0.03 0.55 0.53 -0.44 0.50 -0.47 2.60 -0.41 25.79 0.06 19.62 0.18 25 0.44 24.21 l0.32 -1.02 0.03 1.37 0.03 1.40 -1.96 -0.06 c-1.31 -0.06 -1.99 0.03 -2.07 0.29 -0.06 0.20 -0.58 0.35 -1.17 0.35 -0.88 -0.03 -0.99 -0.09 -0.55 -0.32z" data-index="31"></path>
  <path d="M89.77 97.83 c-0.12 -0.64 -0.32 -1.26 -0.44 -1.34 -0.15 -0.09 -0.26 -0.47 -0.26 -0.88 0 -0.41 -0.20 -0.96 -0.47 -1.20 -0.79 -0.79 -0.06 -4.76 0.99 -5.43 0.23 -0.15 0.35 -0.99 0.35 -2.39 l0 -2.19 1.11 0 c0.99 0.03 1.02 0.06 0.55 0.44 -0.50 0.35 -0.53 0.88 -0.44 7.27 l0.09 6.89 -0.64 0 c-0.55 0 -0.70 -0.20 -0.85 -1.17z" data-index="32"></path>
  <path d="M75.34 77.97 c-1.52 -0.96 -2.86 -1.78 -2.98 -1.81 -0.12 -0.06 -0.32 -0.73 -0.41 -1.49 -0.23 -1.66 0.03 -1.96 1.72 -1.96 0.88 0 1.14 0.15 1.34 0.67 0.18 0.44 0.67 0.79 1.43 1.02 0.64 0.20 1.75 0.70 2.51 1.11 1.26 0.70 1.34 0.82 1.34 1.96 0 1.55 -0.26 1.90 -1.31 2.10 -0.70 0.09 -1.46 -0.23 -3.65 -1.61z" data-index="33"></path>
 </g>
 <g fill="#102474">
  <path d="M132.81 326.43 c-0.88 -0.50 -1.11 -0.82 -1.11 -1.46 0 -0.91 1.26 -2.42 1.72 -2.13 0.41 0.23 0.06 -159.33 -0.35 -159.83 -0.32 -0.41 -6.28 -4.06 -25.17 -15.39 -7.56 -4.53 -14.02 -8.41 -14.37 -8.64 -0.58 -0.35 -0.70 -0.32 -1.02 0.12 -0.35 0.47 -0.44 0.47 -1.34 -0.09 -1.17 -0.73 -1.43 -1.28 -0.93 -2.16 0.18 -0.38 0.44 -1.11 0.55 -1.64 0.18 -0.85 0.58 -1.23 3.10 -2.77 2.19 -1.37 2.89 -1.96 2.86 -2.37 -0.03 -0.38 0.38 -0.85 1.26 -1.40 1.23 -0.76 1.34 -0.79 1.69 -0.32 0.32 0.44 1.72 -0.32 14.37 -7.94 7.68 -4.64 14.19 -8.53 14.48 -8.61 0.26 -0.12 1.14 -0.67 1.96 -1.26 1.05 -0.76 1.49 -1.28 1.49 -1.75 0 -0.91 0.50 -1.20 0.73 -0.44 0.15 0.47 0.29 0.53 0.55 0.32 0.20 -0.18 0.47 -0.20 0.58 -0.09 0.12 0.12 0.18 0.03 0.12 -0.18 -0.06 -0.26 0.23 -0.44 0.88 -0.50 0.70 -0.06 0.93 0.03 0.88 0.38 -0.18 0.88 0.64 0.70 0.82 -0.20 0.12 -0.47 0.41 -1.05 0.67 -1.28 0.35 -0.35 19.13 -11.68 29.35 -17.76 7.62 -4.56 8.50 -5.14 8.64 -5.99 0.12 -0.61 0.38 -0.88 1.11 -1.05 0.53 -0.15 1.02 -0.44 1.14 -0.67 0.20 -0.61 0.91 -0.55 1.02 0.06 0.09 0.41 0.35 0.50 1.31 0.44 0.96 -0.09 1.46 0.06 2.25 0.67 l0.99 0.76 0.18 -0.96 c0.15 -0.88 0.58 -1.20 5.05 -3.88 11.65 -6.89 13.93 -8.26 24.09 -14.43 5.90 -3.56 11.07 -6.54 11.54 -6.63 0.70 -0.15 3.94 1.72 21.55 12.29 11.39 6.83 20.97 12.64 21.23 12.91 0.50 0.44 0.53 1.87 0.53 23.19 l0 22.69 -0.85 0.73 c-0.47 0.38 -2.28 1.52 -4 2.54 -1.75 1.02 -3.59 2.16 -4.09 2.54 -0.50 0.38 -0.99 0.67 -1.08 0.67 -0.29 0 -18.11 10.78 -18.57 11.24 -0.47 0.47 -1.49 -0.23 9.46 6.37 13.46 8.09 17.76 10.75 18.49 11.39 l0.67 0.61 -0.06 41.26 -0.03 41.23 -2.69 1.72 c-1.46 0.96 -4.70 2.98 -7.18 4.50 -2.48 1.52 -5.96 3.65 -7.74 4.76 -1.75 1.08 -6.22 3.83 -9.93 6.07 -3.68 2.25 -7.83 4.76 -9.20 5.61 -3.97 2.45 -3.65 2.37 -5.31 1.34 -0.79 -0.50 -1.58 -0.91 -1.72 -0.91 -0.15 0 -0.26 0.50 -0.26 1.14 0 0.61 -0.15 1.52 -0.32 2.01 -0.35 1.02 -0.44 1.08 -13.11 8.88 -8.15 5.02 -20.53 12.67 -25.35 15.65 -2.51 1.58 -3.18 1.75 -4.12 1.17 -0.85 -0.53 -1.49 -0.09 -1.49 1.05 0 1.17 -0.61 1.78 -3.85 3.77 -6.54 4.03 -22.28 13.70 -27.83 17.08 -3.53 2.16 -7.18 4.44 -8.12 5.05 -1.49 0.99 -1.93 1.14 -3.36 1.14 -1.17 0 -1.99 -0.20 -2.75 -0.64z m20.88 -13.55 c9.02 -5.58 17.70 -10.92 19.27 -11.89 l2.83 -1.75 0 -25.26 c0 -21.79 -0.06 -25.20 -0.41 -25.09 -0.23 0.09 -7.45 4.50 -16 9.78 -8.56 5.26 -17.05 10.48 -18.89 11.59 -2.01 1.23 -3.42 2.28 -3.56 2.69 -0.29 0.76 -0.35 49.56 -0.06 49.82 0.09 0.12 0.23 0.20 0.32 0.20 0.06 0 7.51 -4.56 16.50 -10.10z m33.12 -20.50 c2.54 -1.58 9.23 -5.72 14.83 -9.17 5.64 -3.48 12 -7.42 14.16 -8.76 l3.94 -2.45 0.09 -18.34 c0.06 -16.41 0.03 -18.34 -0.38 -18.16 -0.47 0.18 -2.60 1.46 -25.11 15.30 l-12.27 7.56 -0.09 18.43 c-0.03 10.16 0 18.46 0.06 18.46 0.09 0 2.22 -1.28 4.76 -2.86z m-43.86 -28.53 c5.61 -3.48 8.24 -5.11 18.54 -11.45 3.12 -1.93 7.33 -4.53 9.34 -5.78 2.01 -1.26 4.09 -2.54 4.61 -2.83 l0.93 -0.58 0 -23.77 c0 -13.08 -0.09 -23.77 -0.18 -23.77 -0.20 0 -6.60 3.85 -19.10 11.54 -5.55 3.42 -12.32 7.56 -15.10 9.23 -3.21 1.93 -5.08 3.24 -5.17 3.62 -0.09 0.32 -0.18 11.16 -0.18 24.06 0 18.63 0.09 23.42 0.38 23.30 0.18 -0.06 2.86 -1.69 5.90 -3.56z m90.62 0.03 c9.11 -5.52 14.28 -8.70 19.33 -11.86 2.66 -1.64 6.22 -3.85 7.97 -4.91 l3.12 -1.93 0 -38.49 c0 -21.17 -0.06 -38.49 -0.12 -38.49 -0.23 0 -3.74 2.07 -11.56 6.86 -19.10 11.65 -39.86 24.30 -45.47 27.68 l-2.42 1.46 0 12.94 c0 7.13 0.06 12.97 0.15 12.97 0.20 0 4.56 -2.63 12.64 -7.56 7.30 -4.47 7.30 -4.47 8.97 -3.12 l0.88 0.70 0.09 23.71 c0.06 21.20 0.12 23.68 0.53 23.54 0.23 -0.09 2.89 -1.66 5.90 -3.50z m-50.93 -9.61 c4.32 -2.75 8.32 -5.20 15.21 -9.40 3.39 -2.04 6.98 -4.29 8.03 -4.96 1.05 -0.67 4.44 -2.77 7.53 -4.70 3.07 -1.90 5.61 -3.53 5.61 -3.62 0 -0.15 -5.05 -3.21 -5.31 -3.21 -0.09 0 -2.22 1.26 -4.76 2.77 -2.54 1.52 -4.85 2.77 -5.14 2.77 -0.44 0 -8.18 -4.53 -12.24 -7.15 -2.19 -1.40 -11.27 -6.83 -11.74 -7.01 -0.50 -0.20 -0.53 0.79 -0.53 18.08 0 10.05 0.09 18.28 0.20 18.28 0.09 0 1.52 -0.85 3.12 -1.84z m-39.31 -43.48 c3.48 -2.13 12.32 -7.51 19.62 -11.97 l13.29 -8.09 0 -25.55 c0 -14.08 -0.09 -25.58 -0.23 -25.58 -0.12 0 -3.33 1.87 -7.15 4.18 -12.62 7.62 -29.41 17.64 -30.34 18.11 -1.99 1.05 -1.84 -1.28 -1.84 27.10 0 14.10 0.06 25.67 0.18 25.67 0.09 0 3.01 -1.75 6.48 -3.85z m70.23 -15.89 c5.99 -3.62 13.43 -8.18 16.56 -10.10 3.12 -1.93 8.47 -5.17 11.83 -7.21 16.24 -9.87 20.09 -12.35 19.68 -12.67 -0.18 -0.15 -11.65 -7.15 -17.05 -10.43 -2.57 -1.58 -5.87 -3.59 -7.36 -4.50 l-2.69 -1.66 -3.74 2.31 c-4.61 2.86 -5.49 3.30 -6.02 3.10 -0.47 -0.18 -0.79 0.96 -0.79 2.66 0 0.53 -0.23 1.14 -0.50 1.37 -0.55 0.50 -9.29 5.81 -29.20 17.78 -13.43 8.09 -13.55 8.15 -14.40 8.15 -0.55 0 -0.61 0.15 -0.53 1.96 l0.09 1.99 3.50 2.16 c6.40 3.97 19.27 11.71 19.51 11.71 0.15 0 5.14 -2.98 11.10 -6.60z m-23.30 -20.70 c4.03 -2.45 10.86 -6.60 15.19 -9.23 4.35 -2.66 9.70 -5.90 11.91 -7.24 l4 -2.42 0 -21.43 c0 -14.22 -0.09 -21.43 -0.29 -21.43 -0.26 0 -13.52 7.80 -19.57 11.54 -1.37 0.85 -5.96 3.59 -10.22 6.13 -4.26 2.54 -8.24 4.94 -8.82 5.31 l-1.11 0.67 0 21.79 0 21.79 0.82 -0.53 c0.44 -0.29 4.09 -2.51 8.09 -4.94z m-48.74 -17.84 c6.63 -4.03 27.16 -16.38 30.93 -18.66 1.28 -0.76 2.51 -1.55 2.72 -1.75 0.29 -0.26 -3.71 -2.80 -19.62 -12.35 -10.98 -6.63 -20.06 -12.03 -20.18 -12.03 -0.18 0 -27.74 16.47 -35.86 21.41 -2.37 1.46 -4.26 2.77 -4.21 2.92 0.06 0.23 39.54 24.09 39.95 24.12 0.09 0.03 2.92 -1.64 6.28 -3.65z m97.01 -14.19 c6.69 -4.06 15.13 -9.17 18.75 -11.36 l6.57 -4 0.09 -19.65 c0.03 -10.80 -0.03 -19.74 -0.15 -19.86 -0.15 -0.12 -5.29 2.80 -11.48 6.48 -6.19 3.71 -14.57 8.73 -18.66 11.16 -4.32 2.60 -7.48 4.67 -7.62 5.02 -0.35 0.91 -0.35 39.57 0.03 39.57 0.15 0 5.78 -3.33 12.47 -7.36z m-52.07 -13.02 c15.16 -9.11 23.22 -13.93 28.33 -16.97 3.07 -1.84 5.67 -3.42 5.78 -3.53 0.29 -0.26 -5.87 -4.06 -30.02 -18.46 -8.41 -5.02 -9.29 -5.49 -9.87 -5.49 -0.53 0 -40.39 23.95 -40.30 24.21 0.09 0.18 7.01 4.38 24.76 14.98 13.08 7.80 15.10 8.99 15.30 8.88 0.09 -0.06 2.80 -1.66 6.02 -3.62z m55.81 -33.23 c20.94 -12.56 20.21 -12.09 19.57 -12.44 -0.26 -0.15 -8.59 -5.14 -18.51 -11.10 -9.90 -5.96 -18.31 -10.95 -18.63 -11.10 -0.55 -0.26 -2.92 1.05 -16.65 9.26 -20.88 12.44 -20.97 12.50 -21 12.82 0 0.15 2.31 1.66 5.11 3.33 2.80 1.66 8.67 5.14 13 7.74 13.67 8.18 19.57 11.59 19.92 11.59 0.20 0 7.94 -4.56 17.20 -10.10z" data-index="34" style="opacity: 1;"></path>
  <path d="M92.28 285.02 c0 -11.77 0 -11.97 0.58 -11.97 0.58 0 0.58 0.20 0.58 11.97 0 11.77 0 11.97 -0.58 11.97 -0.58 0 -0.58 -0.20 -0.58 -11.97z" data-index="35"></path>
 </g>
 <g fill="#300c6c">
  <path d="M94.21 299.76 c-0.12 -0.41 -0.32 -0.73 -0.47 -0.73 -0.50 0 -0.35 -2.34 0.15 -2.51 0.32 -0.15 0.44 -0.64 0.44 -1.90 0 -1.52 0.06 -1.72 0.58 -1.72 0.55 0 0.58 0.20 0.58 3.27 0 2.63 0.09 3.36 0.50 3.80 0.44 0.50 0.41 0.53 -0.55 0.53 -0.88 0 -1.08 -0.12 -1.23 -0.73z" data-index="36"></path>
  <path d="M94.32 276.69 c0 -11.13 -0.09 -15.92 -0.32 -15.92 -0.55 0 -1.20 -0.88 -1.46 -1.99 -0.15 -0.58 -0.26 -3.30 -0.26 -6.02 0 -4.61 0.03 -4.99 0.61 -5.61 l0.58 -0.64 -1.26 -0.85 c-1.05 -0.70 -1.26 -0.99 -1.34 -1.93 -0.09 -0.96 -0.18 -1.11 -0.73 -1.02 -0.44 0.06 -0.67 0.32 -0.73 0.82 -0.20 1.78 -0.38 2.01 -3.04 3.71 -2.10 1.37 -8.61 5.40 -12.79 7.97 -0.23 0.15 -3.27 2.01 -6.72 4.12 -3.45 2.13 -9.52 5.84 -13.46 8.29 -3.94 2.45 -7.56 4.56 -8.09 4.64 -0.99 0.23 -2.72 -0.64 -7.30 -3.68 -1.20 -0.76 -2.19 -1.40 -2.25 -1.40 -0.06 0 -3.04 -1.81 -6.63 -4.03 -3.56 -2.22 -10.57 -6.51 -15.56 -9.55 -4.96 -3.04 -9.26 -5.75 -9.55 -6.04 -0.50 -0.50 -0.53 -1.81 -0.53 -24.15 l0 -23.62 1.02 -0.91 c0.55 -0.50 1.02 -0.96 1.02 -1.05 0 -0.12 -0.44 -0.61 -0.99 -1.14 l-0.99 -0.93 -0.03 -27.25 -0.06 -27.28 0.64 -0.67 0.64 -0.70 -0.61 -0.67 -0.64 -0.67 0 -27.22 0 -27.22 1.55 -0.96 c0.82 -0.55 2.57 -1.64 3.85 -2.39 5.17 -3.15 7.45 -4.53 10.51 -6.42 1.78 -1.11 4.06 -2.48 5.11 -3.07 1.05 -0.58 2.75 -1.61 3.80 -2.31 1.05 -0.70 2.83 -1.78 3.94 -2.42 1.14 -0.64 2.45 -1.40 2.92 -1.69 0.50 -0.26 1.66 -0.93 2.63 -1.46 0.96 -0.53 2.34 -1.40 3.07 -1.90 0.73 -0.53 2.28 -1.43 3.45 -2.04 1.78 -0.93 2.28 -1.08 2.92 -0.85 0.73 0.26 0.82 0.20 1.08 -0.67 0.26 -0.82 0.96 -1.37 5.11 -3.91 2.66 -1.64 6.19 -3.77 7.88 -4.73 1.69 -0.96 3.71 -2.19 4.53 -2.72 0.79 -0.55 1.58 -0.99 1.72 -0.99 0.15 0 0.55 -0.26 0.88 -0.58 0.35 -0.29 1.34 -0.93 2.22 -1.37 0.88 -0.47 2.63 -1.49 3.85 -2.28 2.75 -1.81 9.96 -6.02 11.04 -6.48 0.44 -0.18 0.91 -0.47 0.99 -0.64 0.12 -0.18 1.05 -0.79 2.07 -1.37 1.43 -0.79 2.16 -1.02 2.98 -0.93 1.02 0.09 1.11 0.03 1.20 -0.70 0.09 -0.67 2.34 -2.10 20.44 -13 11.18 -6.72 20.73 -12.38 21.17 -12.62 1.05 -0.53 0.76 -0.67 10.57 5.17 28.30 16.88 33 19.77 33.29 20.50 0.18 0.47 0.26 9.61 0.20 25.90 l-0.06 25.20 -0.88 0.44 c-0.47 0.23 -0.93 0.44 -1.05 0.41 -0.09 0 -0.70 0.44 -1.34 1.02 -1.11 1.02 -1.69 1.28 -1.69 0.85 0 -0.15 0.41 -0.47 0.88 -0.73 l0.88 -0.50 0 -24.41 0 -24.41 -0.79 0.44 c-0.47 0.23 -3.97 2.31 -7.83 4.61 -3.85 2.31 -12.35 7.39 -18.89 11.33 l-11.91 7.10 0 1.99 0 1.99 -1.61 -0.12 c-0.91 -0.06 -1.61 0.03 -1.61 0.20 0 0.15 -0.12 0.18 -0.29 0.09 -0.15 -0.09 -0.29 -0.50 -0.29 -0.91 0 -0.38 -0.09 -0.70 -0.18 -0.70 -0.09 0 -5.05 2.92 -11.01 6.48 -5.99 3.53 -12.97 7.71 -15.54 9.23 -2.57 1.52 -5.78 3.45 -7.15 4.29 -1.37 0.82 -3.56 2.16 -4.88 2.92 l-2.42 1.40 0 2.13 c0 1.37 -0.12 2.22 -0.35 2.37 -0.35 0.23 -1.02 1.69 -1.26 2.77 -0.12 0.53 0.82 1.78 1.14 1.49 0.09 -0.09 0.18 -0.03 0.18 0.12 0 0.18 -0.18 0.38 -0.35 0.47 -0.29 0.09 -0.29 0.26 -0.03 0.73 0.20 0.35 0.44 1.05 0.53 1.58 0.09 0.53 0.29 1.02 0.47 1.05 0.15 0.06 0.26 0.32 0.26 0.58 0 0.47 0.23 1.28 3.97 14.66 2.63 9.26 4.23 14.92 4.41 15.33 0.06 0.18 -0.55 0.70 -1.37 1.17 -0.79 0.50 -1.46 0.96 -1.46 1.11 0 0.12 -0.15 0.20 -0.32 0.20 -0.23 0 -0.26 -0.12 0 -0.38 0.23 -0.32 0.09 -1.20 -0.58 -3.59 -0.50 -1.75 -1.20 -4.29 -1.58 -5.67 -0.38 -1.37 -1.72 -6.22 -3.01 -10.80 -1.28 -4.58 -2.83 -10.16 -3.42 -12.41 -1.49 -5.78 -2.77 -9.78 -3.10 -9.78 -0.26 0 -6.78 3.80 -11.51 6.72 -0.96 0.58 -6.75 4.06 -12.85 7.74 -6.10 3.65 -11.45 6.89 -11.89 7.18 l-0.76 0.55 0.82 2.57 c0.47 1.40 1.81 5.64 3.04 9.40 1.20 3.77 3.65 11.48 5.43 17.08 1.81 5.64 4.18 13.11 5.31 16.65 1.11 3.53 3.07 9.67 4.35 13.61 1.26 3.97 2.31 7.36 2.31 7.53 0 0.18 0.12 0.32 0.29 0.32 0.29 0 7.10 -13.40 13.58 -26.87 2.07 -4.26 4.61 -9.37 5.67 -11.36 1.58 -3.01 1.96 -3.50 2.07 -2.92 0.09 0.38 0.58 0.96 1.08 1.28 l0.88 0.61 -0.53 1.02 c-0.29 0.55 -4.88 9.81 -10.19 20.56 -11.51 23.27 -12.62 25.49 -13 25.58 -0.15 0.03 -1.52 -3.74 -3.01 -8.38 -4.26 -13.17 -7.94 -24.62 -10.86 -33.85 -1.46 -4.64 -3.91 -12.27 -5.40 -16.94 -1.52 -4.64 -3.21 -9.99 -3.80 -11.83 l-1.02 -3.36 -1.84 -1.17 c-2.92 -1.84 -34.46 -20.76 -35.48 -21.29 l-0.93 -0.50 0 25.06 0 25.06 1.40 0.79 c2.25 1.26 2.63 1.64 2.10 1.99 -0.29 0.18 -0.32 0.29 -0.06 0.29 0.18 0 0.35 0.15 0.35 0.32 0 0.15 -0.12 0.20 -0.29 0.12 -0.15 -0.09 -0.29 -0.03 -0.29 0.15 0 0.18 -0.15 0.23 -0.35 0.12 -0.23 -0.15 -0.26 -0.06 -0.15 0.29 0.15 0.38 0 0.53 -0.67 0.67 -0.47 0.09 -0.79 0.26 -0.73 0.41 0.09 0.12 0.03 0.29 -0.12 0.38 -0.15 0.12 -0.35 0.06 -0.47 -0.12 -0.09 -0.15 -0.29 -0.29 -0.47 -0.29 -0.15 0 -0.26 10.10 -0.26 26.43 l0 26.46 1.02 0.58 c0.55 0.35 1.02 0.73 1.02 0.91 0 0.15 0.15 0.18 0.32 0.06 0.23 -0.12 0.23 0 0 0.44 -0.20 0.32 -0.47 0.61 -0.58 0.61 -0.15 0 -0.09 0.50 0.12 1.08 0.23 0.70 0.26 1.17 0.12 1.28 -0.18 0.09 -0.09 0.32 0.15 0.55 0.79 0.64 0.20 0.88 -0.76 0.29 -0.50 -0.29 -1.02 -0.50 -1.17 -0.41 -0.26 0.18 -0.32 39.19 -0.03 41.85 0.18 1.69 0.26 1.87 1.23 2.51 0.58 0.38 5.72 3.53 11.42 7.01 5.69 3.48 11.16 6.83 12.12 7.45 0.96 0.58 3.85 2.37 6.42 3.94 2.57 1.58 5.05 3.12 5.55 3.45 0.47 0.35 1.08 0.58 1.37 0.58 0.26 -0.03 2.98 -1.58 5.99 -3.45 3.01 -1.90 7.21 -4.47 9.29 -5.75 2.10 -1.31 4.58 -2.83 5.55 -3.45 2.57 -1.61 11.97 -7.42 16.32 -10.07 2.04 -1.28 3.80 -2.45 3.85 -2.63 0.09 -0.18 0.09 -1.93 0.06 -3.91 l-0.09 -3.59 -3.07 2.01 c-1.69 1.11 -3.48 2.25 -4 2.48 l-0.93 0.47 -0.09 -1.46 -0.09 -1.46 -1.46 2.51 c-1.17 2.01 -1.78 2.75 -2.95 3.53 -0.82 0.55 -2.04 1.72 -2.72 2.60 -1.43 1.84 -2.25 2.28 -2.89 1.46 -1.05 -1.40 -3.07 -6.16 -5.52 -13.11 -0.73 -2.07 -1.72 -4.79 -2.19 -5.99 -0.50 -1.20 -1.58 -4.15 -2.42 -6.57 -2.10 -5.84 -2.89 -7.97 -3.12 -8.18 -0.12 -0.12 -1.28 0.50 -2.63 1.37 -1.34 0.88 -2.95 1.90 -3.56 2.28 -0.64 0.38 -1.52 1.11 -1.96 1.61 -0.73 0.79 -0.85 0.85 -1.28 0.41 -0.41 -0.41 -0.50 -2.57 -0.64 -20.21 -0.12 -13 -0.09 -19.77 0.12 -19.77 0.26 0 2.01 4.64 11.18 29.35 3.39 9.05 6.25 16.85 7.88 21.46 2.13 6.02 5.02 13.43 5.23 13.43 0.09 0 0.85 -1.08 1.66 -2.42 15.65 -25.46 17.93 -29.06 17.93 -27.98 0 0.20 0.12 0.26 0.29 0.18 0.15 -0.09 0.20 -0.53 0.12 -0.96 -0.12 -0.61 0.29 -1.52 1.84 -4.12 1.11 -1.84 2.16 -3.39 2.37 -3.48 0.26 -0.09 0.35 4.21 0.41 18.95 l0.09 19.07 3.56 2.22 c1.99 1.20 3.59 2.25 3.59 2.34 0 0.09 -0.85 0.53 -1.90 0.99 -1.40 0.64 -1.81 0.96 -1.58 1.23 0.38 0.47 -0.09 0.73 -0.61 0.38 -1.20 -0.73 -1.17 -1.11 -1.17 20.91 0 20.97 0 21.17 -0.58 21.17 -0.58 0 -0.58 -0.20 -0.58 -15.92z m-6.19 -44.10 l1.52 -0.76 0 -6.28 c0 -3.42 -0.06 -6.25 -0.15 -6.25 -0.06 0 -0.76 1.08 -1.55 2.42 -0.79 1.31 -2.57 4.23 -3.94 6.48 -1.99 3.30 -2.45 4.26 -2.34 4.91 0.15 0.82 0.18 0.82 1.87 0.61 1.55 -0.18 1.72 -0.15 1.72 0.32 0 0.50 0.06 0.50 0.67 -0.09 0.35 -0.32 1.34 -0.93 2.19 -1.37z m-39.25 -21.76 c0.18 -1.14 0.20 -1.17 1.31 -1.17 l1.14 0 -1.40 -4.12 c-0.79 -2.28 -1.49 -4.21 -1.58 -4.29 -0.09 -0.09 -0.18 2.37 -0.18 5.46 0 5.26 0.26 6.83 0.70 4.12z m10.28 -110.91 c18.31 -10.98 26.11 -15.71 26.11 -15.94 0 -0.06 -1.69 -1.11 -3.80 -2.37 -2.07 -1.26 -3.80 -2.31 -3.80 -2.39 0 -0.32 0.91 -0.99 1.14 -0.85 0.23 0.18 0.61 -0.44 0.61 -0.99 0 -0.29 -2.19 -1.55 -3.53 -2.01 -0.70 -0.23 -0.99 -0.23 -1.17 0 -0.12 0.20 -0.29 -0.03 -0.41 -0.58 -0.23 -1.05 -0.55 -1.31 -1.17 -0.99 -0.38 0.23 -0.38 0.35 0.03 1.11 0.35 0.67 0.35 0.91 0.06 1.20 -0.32 0.32 -2.77 -1.05 -13.05 -7.21 l-12.64 -7.59 -3.59 2.13 c-16.67 9.87 -35.74 21.46 -35.69 21.64 0.09 0.26 37.29 22.69 37.61 22.69 0.12 0 6.10 -3.53 13.29 -7.83z m48.74 -28.65 c23.13 -13.87 22.49 -13.46 21.99 -13.90 -0.20 -0.20 -3.91 -2.48 -8.26 -5.05 -4.32 -2.54 -12.79 -7.56 -18.81 -11.13 -6.02 -3.56 -11.07 -6.42 -11.24 -6.34 -1.28 0.61 -39.42 23.77 -39.51 24 -0.06 0.15 1.72 1.31 3.91 2.63 2.22 1.28 7.33 4.29 11.33 6.69 4.03 2.39 10.78 6.42 15.04 8.97 4.38 2.60 7.94 4.53 8.18 4.44 0.23 -0.09 8.06 -4.73 17.38 -10.31z m44.27 -26.55 c21.67 -13 20.85 -12.47 20.85 -12.85 0 -0.29 -37.26 -22.84 -37.73 -22.84 -0.09 0 -1.43 0.76 -2.98 1.69 -2.37 1.46 -29.58 17.73 -34.43 20.59 -0.85 0.50 -1.49 1.02 -1.43 1.17 0.03 0.15 2.10 1.46 4.58 2.89 6.60 3.85 22.43 13.29 28.18 16.76 2.75 1.66 5.17 2.95 5.43 2.92 0.26 -0.06 8.15 -4.70 17.52 -10.34z" data-index="37" style="opacity: 1;"></path>
  <path d="M132.02 106.65 c0 -1.64 0.15 -2.98 0.29 -2.98 0.23 0 0.38 0.44 0.20 0.67 -0.06 0.06 0.09 0.32 0.29 0.58 0.23 0.26 0.29 0.64 0.18 0.85 -0.12 0.20 -0.23 0.99 -0.23 1.75 -0.03 0.76 -0.20 1.55 -0.38 1.72 -0.29 0.29 -0.38 -0.23 -0.35 -2.60z" data-index="38"></path>
  <path d="M133.75 108.22 c0.32 -0.32 2.04 -0.47 2.04 -0.18 0 0.12 -0.53 0.29 -1.17 0.35 -0.70 0.06 -1.05 0 -0.88 -0.18z" data-index="39"></path>
 </g>
 <g fill="#181b6e">
  <path d="M133.75 326.75 c0 -0.09 -0.18 -0.18 -0.35 -0.18 -0.41 -0.03 -3.21 -1.72 -30.17 -18.19 -9.61 -5.90 -9.99 -6.13 -10.34 -6.54 -0.44 -0.50 -0.76 -48.36 -0.35 -48.36 0.35 0 0.61 1.08 0.61 2.54 0 0.67 0.15 1.31 0.29 1.40 0.18 0.12 0.23 0.41 0.18 0.67 -0.09 0.29 -0.03 0.70 0.12 0.93 0.15 0.23 0.29 0.32 0.32 0.15 0 -0.15 0.12 -0.03 0.26 0.29 0.20 0.47 0.26 0.32 0.26 -0.64 0.03 -0.67 0.15 -1.28 0.32 -1.40 0.29 -0.18 0.55 34.37 0.26 38.26 -0.09 1.28 -0.18 2.13 -0.20 1.93 -0.06 -0.32 -0.15 -0.35 -0.38 -0.12 -0.26 0.26 -0.23 0.47 0.15 0.82 0.26 0.26 0.47 0.64 0.47 0.82 0 0.41 0.55 0.79 6.57 4.47 10.02 6.07 15.19 9.26 22.57 13.78 4.21 2.60 8.06 4.94 8.56 5.17 l0.88 0.47 -0.06 -24.82 c-0.06 -13.67 0 -24.94 0.12 -25.03 0.23 -0.23 0.26 6.89 0.23 32.59 -0.03 9.23 -0.12 17.14 -0.20 17.61 -0.09 0.44 -0.29 0.79 -0.44 0.79 -0.18 0 -0.20 0.15 -0.12 0.29 0.09 0.18 -0.06 0.29 -0.35 0.29 -0.50 0.03 -0.50 0.03 0 0.32 0.26 0.15 0.50 0.50 0.50 0.73 0 0.23 0.44 0.61 0.96 0.85 0.91 0.41 0.93 0.41 0.15 0.35 -0.47 -0.03 -0.82 -0.12 -0.82 -0.23z" data-index="40" style="opacity: 1;"></path>
  <path d="M156.26 314.63 c1.02 -1.11 1.72 -1.43 2.13 -0.96 0.23 0.26 0.23 0.29 -0.03 0.15 -0.18 -0.09 -0.44 0 -0.58 0.20 -0.12 0.23 -0.67 0.61 -1.23 0.91 l-1.02 0.47 0.73 -0.76z" data-index="41"></path>
  <path d="M217.59 276.67 c0.73 -0.79 2.04 -1.58 2.63 -1.58 0.64 0 -0.41 0.91 -1.90 1.64 l-1.43 0.70 0.70 -0.76z" data-index="42"></path>
  <path d="M225.74 271.44 c-0.41 -0.23 -0.67 -0.44 -0.58 -0.44 1.26 -0.18 3.15 -0.15 3.04 0.06 -0.09 0.15 -0.23 0.20 -0.32 0.12 -0.09 -0.09 -0.35 0.03 -0.58 0.26 -0.53 0.53 -0.61 0.53 -1.55 0z" data-index="43"></path>
  <path d="M133.46 198.43 c0 -19.10 0.06 -34.63 0.15 -34.58 0.20 0.20 0.23 68.89 0.03 69.09 -0.09 0.12 -0.18 -15.42 -0.18 -34.52z" data-index="44"></path>
  <path d="M132.29 162.31 c-3.39 -1.96 -5.87 -3.59 -5.61 -3.68 0.53 -0.18 5.17 2.57 6.31 3.71 0.73 0.76 0.61 0.73 -0.70 -0.03z" data-index="45"></path>
  <path d="M121.42 155.80 c-1.23 -0.82 -1.72 -1.40 -0.91 -1.11 0.70 0.26 2.72 1.52 2.72 1.69 0 0.32 -0.79 0.06 -1.81 -0.58z" data-index="46"></path>
  <path d="M114.85 151.80 c-1.40 -0.70 -3.01 -1.96 -2.54 -1.99 0.32 0 3.91 2.28 3.91 2.48 0 0.20 -0.03 0.20 -1.37 -0.50z" data-index="47"></path>
  <path d="M108.34 147.85 c-0.82 -0.32 -2.69 -1.58 -2.54 -1.72 0.20 -0.20 2.37 0.91 2.80 1.46 0.41 0.50 0.41 0.50 -0.26 0.26z" data-index="48"></path>
  <path d="M104.19 145.40 c-1.17 -0.61 -1.37 -0.85 -0.70 -0.85 0.23 0 0.82 0.32 1.26 0.73 0.99 0.85 0.88 0.88 -0.55 0.12z" data-index="49"></path>
  <path d="M90.47 137.19 c-0.06 -0.18 0.03 -0.93 0.20 -1.66 0.26 -1.02 0.58 -1.46 1.43 -2.01 0.61 -0.38 1.26 -0.61 1.43 -0.55 0.18 0.06 -0.23 0.41 -0.91 0.79 -1.28 0.73 -2.01 2.10 -1.72 3.24 0.15 0.58 -0.26 0.79 -0.44 0.20z" data-index="50"></path>
  <path d="M95.05 131.70 c0.47 -0.29 0.93 -0.50 1.02 -0.41 0.20 0.23 -0.91 0.99 -1.43 0.99 -0.29 0 -0.12 -0.23 0.41 -0.58z" data-index="51"></path>
  <path d="M100.46 128.67 c0 -0.06 0.47 -0.38 1.05 -0.73 1.05 -0.64 1.93 -0.85 1.43 -0.35 -0.32 0.32 -2.48 1.26 -2.48 1.08z" data-index="52"></path>
  <path d="M111.82 121.98 c0.67 -0.82 5.87 -3.83 5.46 -3.15 -0.23 0.38 -4.09 2.66 -4.50 2.66 -0.20 0 -0.35 0.12 -0.35 0.26 0 0.15 -0.20 0.35 -0.47 0.44 -0.38 0.15 -0.41 0.12 -0.15 -0.20z" data-index="53"></path>
  <path d="M121.34 115.99 c2.63 -1.58 3.80 -2.13 3.07 -1.43 -0.73 0.70 -4.47 2.83 -4.94 2.83 -0.26 0 0.58 -0.64 1.87 -1.40z" data-index="54"></path>
  <path d="M125.02 113.77 c0.06 -0.06 0.58 -0.32 1.14 -0.58 l1.02 -0.50 -0.70 0.61 c-0.38 0.32 -0.88 0.58 -1.14 0.58 -0.23 0 -0.38 -0.06 -0.32 -0.12z" data-index="55"></path>
  <path d="M136.49 108.28 c0.32 -1.05 0.64 -1.43 2.25 -2.48 1.02 -0.70 2.01 -1.26 2.22 -1.26 0.18 0 0.53 -0.18 0.73 -0.38 0.50 -0.50 8.44 -5.31 9.17 -5.58 1.14 -0.38 -0.85 1.02 -4.38 3.10 -8.44 4.96 -8.91 5.29 -9.40 6.72 -0.50 1.49 -0.99 1.37 -0.58 -0.12z" data-index="56"></path>
  <path d="M152.82 97.39 c0.44 -0.41 1.02 -0.73 1.26 -0.73 0.70 0 0.47 0.26 -0.82 0.88 l-1.26 0.61 0.82 -0.76z" data-index="57"></path>
  <path d="M155.50 95.84 c0.38 -0.38 5.37 -3.39 6.07 -3.65 1.11 -0.41 0.12 0.35 -2.48 1.93 -2.75 1.64 -4.15 2.34 -3.59 1.72z" data-index="58"></path>
  <path d="M164.41 90.41 c0.23 -0.23 1.23 -0.88 2.19 -1.43 0.96 -0.55 2.95 -1.75 4.44 -2.66 1.46 -0.91 2.95 -1.72 3.33 -1.78 0.91 -0.18 0.44 0.18 -1.64 1.31 -0.96 0.53 -2.16 1.26 -2.69 1.64 -0.50 0.38 -0.99 0.70 -1.05 0.70 -0.09 0 -1.11 0.58 -2.28 1.31 -2.13 1.31 -3.12 1.69 -2.31 0.91z" data-index="59"></path>
  <path d="M176.30 83.02 c0.53 -0.53 1.23 -0.96 1.55 -0.96 0.82 0 0.73 0.20 -0.29 0.73 -0.47 0.26 -0.88 0.35 -0.88 0.26 0 -0.12 -0.29 0.03 -0.67 0.35 -0.38 0.29 -0.23 0.12 0.29 -0.38z" data-index="60"></path>
 </g>
 <g fill="#28085d">
  <path d="M92.98 301.72 c-0.61 -0.53 -0.61 -0.55 -0.41 -13.05 l0.20 -12.56 0.09 10.51 c0.03 5.78 0.06 11.42 0.03 12.53 -0.03 1.52 0.06 2.13 0.44 2.54 0.61 0.70 0.47 0.70 -0.35 0.03z" data-index="61"></path>
  <path d="M92.46 274.18 c-0.32 -1.61 -0.20 -25.96 0.12 -25.96 0.20 0 0.29 4.56 0.29 13.43 0 7.39 -0.06 13.43 -0.12 13.43 -0.06 0 -0.18 -0.41 -0.29 -0.91z" data-index="62"></path>
  <path d="M41.61 270.88 c-1.61 -0.99 -5.75 -3.56 -9.20 -5.69 -3.45 -2.13 -6.37 -4.03 -6.48 -4.23 -0.12 -0.18 -0.23 -0.20 -0.23 -0.03 0 0.18 -0.20 0.06 -0.41 -0.23 -0.23 -0.29 -0.47 -0.50 -0.53 -0.47 -0.18 0.15 -2.57 -1.31 -2.57 -1.55 0 -0.15 -0.15 -0.18 -0.29 -0.09 -0.18 0.09 -0.38 -0.03 -0.47 -0.26 -0.09 -0.26 -0.26 -0.41 -0.41 -0.32 -0.12 0.06 -0.47 -0.12 -0.76 -0.38 -0.29 -0.29 -0.64 -0.53 -0.76 -0.53 -0.12 0.03 -0.53 -0.23 -0.88 -0.55 -0.38 -0.29 -0.70 -0.50 -0.73 -0.44 -0.03 0.09 -0.32 -0.09 -0.67 -0.35 -0.32 -0.29 -0.58 -0.47 -0.58 -0.38 0 0.20 -6.25 -3.68 -6.48 -4.06 -0.15 -0.18 -0.23 -0.20 -0.23 -0.03 0 0.18 -0.20 0.06 -0.41 -0.23 -0.23 -0.29 -0.50 -0.53 -0.61 -0.50 -0.38 0.12 -4.79 -2.75 -4.64 -2.98 0.18 -0.29 3.59 1.49 4.47 2.31 0.32 0.32 1.08 0.82 1.69 1.14 0.61 0.35 1.61 0.91 2.22 1.23 0.61 0.35 1.23 0.64 1.40 0.64 0.15 0 0.44 0.12 0.64 0.29 0.20 0.15 0.82 0.64 1.37 1.11 1.17 0.96 6.19 4.15 6.51 4.15 0.15 0 1.02 0.53 1.96 1.17 0.96 0.64 2.01 1.28 2.39 1.43 0.38 0.15 1.14 0.58 1.72 0.99 0.93 0.64 2.92 1.81 6.04 3.59 0.58 0.35 1.31 0.58 1.58 0.53 0.47 -0.09 0.93 0.32 0.96 0.85 0 0.12 0.12 0.20 0.26 0.18 0.15 0 0.38 0.18 0.53 0.44 0.15 0.26 0.93 0.82 1.75 1.23 0.85 0.44 2.16 1.20 2.92 1.75 1.11 0.73 1.58 0.91 2.07 0.73 0.35 -0.12 0.82 -0.18 1.05 -0.09 0.23 0.09 0.32 0 0.20 -0.20 -0.12 -0.18 -0.06 -0.26 0.20 -0.18 0.20 0.09 1.31 -0.38 2.48 -1.05 3.39 -1.96 3.07 -1.14 -0.38 0.99 -1.75 1.08 -3.33 1.96 -3.50 1.93 -0.15 0 -1.61 -0.85 -3.21 -1.84z" data-index="63"></path>
  <path d="M40.01 266.62 c-0.55 -0.47 -0.88 -0.88 -0.67 -0.88 0.50 0 2.10 0.96 2.28 1.40 0.23 0.61 -0.55 0.38 -1.61 -0.53z" data-index="64"></path>
  <path d="M58 264.25 c0.67 -0.73 2.13 -1.55 2.39 -1.31 0.20 0.23 -0.79 0.99 -1.61 1.23 -0.38 0.09 -0.67 0.29 -0.67 0.44 0 0.15 -0.15 0.26 -0.35 0.26 -0.18 0 -0.09 -0.26 0.23 -0.61z" data-index="65"></path>
  <path d="M34.40 263.47 c-1.49 -0.47 -1.64 -0.67 -1.02 -1.17 0.29 -0.23 0.70 -0.12 1.64 0.50 1.52 0.99 1.26 1.26 -0.61 0.67z" data-index="66"></path>
  <path d="M62.26 261.95 c0.12 -0.44 2.69 -2.34 3.18 -2.34 0.61 0 -0.18 0.82 -1.43 1.46 -0.76 0.41 -1.49 0.88 -1.61 1.02 -0.15 0.18 -0.20 0.12 -0.15 -0.15z" data-index="67"></path>
  <path d="M66 259.76 c0.03 -0.44 1.99 -2.48 2.42 -2.48 0.20 0 0.96 -0.32 1.72 -0.73 1.78 -0.93 1.93 -0.93 0.76 0.09 -0.99 0.88 -3.71 2.54 -4.12 2.54 -0.12 0 -0.35 0.20 -0.50 0.44 -0.15 0.23 -0.29 0.32 -0.29 0.15z" data-index="68"></path>
  <path d="M72.13 255.90 c0 -0.29 0.99 -1.23 2.83 -2.60 0.44 -0.32 1.23 -0.70 1.69 -0.82 0.50 -0.12 1.11 -0.44 1.40 -0.70 1.17 -1.05 5.69 -3.62 6.19 -3.50 0.44 0.09 -10.05 6.72 -10.95 6.89 -0.23 0.06 -0.61 0.32 -0.79 0.58 -0.20 0.26 -0.38 0.32 -0.38 0.15z" data-index="69"></path>
  <path d="M73.36 243.20 c0.23 -0.38 0.99 -1.66 1.69 -2.86 0.70 -1.20 2.13 -3.50 3.15 -5.11 1.93 -2.92 6.54 -10.45 8.47 -13.73 0.85 -1.43 3.30 -5.17 3.74 -5.67 0.06 -0.06 0.12 3.71 0.12 8.38 l0 8.50 -1.52 0.76 c-0.82 0.41 -1.93 1.14 -2.48 1.61 -0.91 0.82 -2.39 1.23 -1.99 0.58 0.09 -0.15 0.06 -0.29 -0.12 -0.29 -0.18 0 -0.23 -0.23 -0.12 -0.50 0.18 -0.50 0.15 -0.50 -0.41 0 -0.38 0.32 -0.67 0.41 -0.79 0.23 -0.12 -0.18 -0.50 -0.12 -1.05 0.20 -0.96 0.55 -1.08 0.50 -1.23 -0.67 -0.09 -0.82 -0.41 -1.28 -0.88 -1.31 -0.09 0 -0.15 0.47 -0.12 1.02 0.06 0.55 -0.03 1.02 -0.15 1.02 -0.15 0 -0.26 0.20 -0.26 0.47 0 0.23 0.15 0.35 0.29 0.26 0.67 -0.41 0.91 0.23 0.29 0.88 -0.38 0.41 -0.55 0.85 -0.44 1.05 0.15 0.20 0.12 0.29 -0.09 0.15 -0.18 -0.09 -0.38 -0.06 -0.50 0.12 -0.09 0.15 -0.03 0.29 0.15 0.29 0.18 0 0.23 0.15 0.15 0.29 -0.26 0.41 0.15 0.35 1.02 -0.15 1.17 -0.67 1.40 -0.47 0.26 0.23 -0.55 0.35 -1.61 1.11 -2.34 1.69 -1.61 1.28 -3.56 2.54 -4.56 2.92 -0.73 0.26 -0.73 0.26 -0.32 -0.38z" data-index="70" style="opacity: 1;"></path>
  <path d="M47.31 207.37 c0 -6.69 0.12 -10.57 0.29 -10.69 0.18 -0.09 0.29 -0.15 0.29 -0.09 0 0.06 0.35 1.02 0.76 2.13 0.67 1.78 2.66 7.42 4.56 12.79 0.58 1.66 0.53 2.69 -0.12 2.48 -0.18 -0.06 -0.50 -0.55 -0.67 -1.08 -0.18 -0.50 -0.44 -1.02 -0.61 -1.14 -0.18 -0.12 -0.38 -0.38 -0.47 -0.61 -0.06 -0.23 -0.41 -0.47 -0.79 -0.53 -0.50 -0.06 -0.64 0.03 -0.50 0.35 0.09 0.23 0.03 0.44 -0.12 0.44 -0.41 0 -0.35 1.40 0.06 1.52 0.26 0.09 0.26 0.18 0 0.35 -0.20 0.12 -0.35 0.06 -0.35 -0.12 0 -0.61 -0.58 0.03 -0.61 0.67 0 0.35 -0.09 0.47 -0.18 0.26 -0.06 -0.18 -0.26 -0.29 -0.38 -0.20 -0.15 0.09 -0.20 0.35 -0.12 0.58 0.12 0.23 0.29 0.35 0.44 0.26 0.15 -0.09 0.26 0 0.26 0.15 0 0.18 0.20 0.32 0.44 0.32 0.23 0 0.44 -0.12 0.44 -0.29 0 -0.15 0.20 -0.20 0.44 -0.12 0.79 0.32 0.47 0.91 -1.11 1.99 -0.85 0.58 -1.64 1.05 -1.75 1.05 -0.12 0 -0.20 -4.73 -0.20 -10.48z" data-index="71"></path>
  <path d="M3.71 189.61 c-0.12 -0.09 -0.20 -11.04 -0.20 -24.30 l0 -24.09 0.64 -0.67 0.61 -0.67 -0.61 -0.67 -0.64 -0.67 0 -26.34 c0 -17.55 0.09 -26.34 0.29 -26.34 0.20 0 0.29 8.70 0.23 26.25 -0.06 24.44 0 26.31 0.47 27.01 0.47 0.73 0.47 0.82 -0.06 1.46 -0.53 0.67 -0.53 1.66 -0.50 24.97 0.03 13.35 0.03 24.27 0 24.27 -0.03 0 -0.15 -0.09 -0.23 -0.20z" data-index="72"></path>
  <path d="M29.03 68.66 c0.67 -0.73 2.89 -2.07 3.45 -2.07 0.55 0.03 -0.85 1.11 -2.54 1.96 -1.37 0.70 -1.43 0.70 -0.91 0.12z" data-index="73"></path>
  <path d="M68.19 45.26 c0.76 -0.85 3.01 -2.10 3.59 -1.99 0.29 0.06 -0.32 0.55 -1.61 1.34 -2.31 1.37 -2.77 1.52 -1.99 0.64z" data-index="74"></path>
  <path d="M138.30 7.21 c-1.43 -0.85 -2.37 -1.23 -3.12 -1.23 -0.85 0 -1.02 -0.06 -0.79 -0.35 0.18 -0.20 0.53 -0.38 0.79 -0.38 0.47 0 4.85 2.37 5.40 2.92 0.58 0.58 -0.32 0.20 -2.28 -0.96z" data-index="75"></path>
 </g>
</svg>